<svg width="149" height="155" viewBox="0 0 149 155" fill="none" xmlns="http://www.w3.org/2000/svg">
<path d="M73.8714 0C33.1408 0 0 33.3133 0 74.2631C0 114.444 29.7998 155 96.3611 155C113.127 155 135.707 148.567 136.661 148.293L149 144.754L138.78 136.941C135.055 134.091 130.817 130.539 126.347 126.485C140.026 112.666 147.743 94.0077 147.743 74.2631C147.743 33.3133 114.602 0 73.8714 0ZM73.8714 11.9231C108.034 11.9231 135.823 39.8888 135.823 74.2631C135.823 90.8302 129.459 106.393 117.885 118.09L109.119 126.95L118.35 135.311C119.93 136.741 121.481 138.121 122.995 139.432C115.336 141.149 104.824 143.077 96.3611 143.077C34.0374 143.077 11.92 106.008 11.92 74.2631C11.92 39.8888 39.7087 11.9231 73.8714 11.9231ZM78.9467 35.7809C63.5699 35.4768 50.7704 44.0948 50.532 59.2311C50.4724 62.5815 50.5934 70.0572 59.146 75.3809C69.2601 81.6584 84.5733 81.6662 84.3945 90.7039C84.2753 96.9873 76.6794 98.2969 73.0915 98.2373C72.1915 98.2373 64.1717 98.1247 59.0878 91.0066L47.3657 103.512C55.6203 111.471 64.6571 113.138 71.8925 113.258C74.8844 113.317 100.193 113.322 100.61 89.4464C100.67 84.7785 100.003 77.7852 92.1123 72.8193C82.0637 66.4762 67.1739 67.071 67.3527 58.2181C67.4719 51.3922 76.4399 50.7299 78.353 50.7895C78.4722 50.7895 86.1906 50.8522 90.017 55.8778L101.332 43.8499C98.5185 41.2149 91.9276 35.9597 78.9467 35.7809Z" fill="url(#paint0_linear_648_1253)"/>
<defs>
<linearGradient id="paint0_linear_648_1253" x1="-53.7093" y1="26.6045" x2="215.055" y2="193.978" gradientUnits="userSpaceOnUse">
<stop stop-color="#5D87FF"/>
<stop offset="1" stop-color="#EB4571" stop-opacity="0.9785"/>
</linearGradient>
</defs>
</svg>
